# File created by Blade
# Date/Time:  Wed Jan 21 14:37:15 2015
# Frame Rate: 120.000 fps
#------------------------------------------------------
:FULLY-SPECIFIED
:DEGREES
190
root 18.693984 35.617413 -20.847346 -174.797516 -8.109403 -179.968232
Spine -15.223470 2.613624 1.807645
Head -0.909799 -10.327458 0.114245
LeftShoulder 17.789869 -33.798215 -17.857138
LeftArm 17.061371 28.531954 -77.953661
LeftForeArm -64.553372 -0.000000 132.861002
LeftHand 1.256313 0.000000 18.663725
LeftHandThumb1 -26.253704 0.000000 33.147579
RightShoulder 13.290607 50.607668 -33.178082
RightArm 97.326927 -25.264154 56.111958
RightForeArm -46.413826 -0.000000 93.824538
RightHand -4.873078 0.000000 6.217648
RightHandThumb1 -24.326973 -0.000000 -32.862282
LeftUpLeg -0.554965 9.243305 0.605429
LeftLeg -5.423004 -0.000000 0.000000
LeftFoot -17.371313 26.672260 -11.579829
LeftToeBase 26.783443 -0.000000 -0.000000
RightUpLeg 0.587305 -12.466204 0.478120
RightLeg -3.033947 -0.000000 0.000000
RightFoot -20.447089 -28.922227 13.419311
RightToeBase 23.854647 -0.000000 -0.000000
191
root 18.690529 35.617146 -20.847992 -174.768377 -8.153343 -179.969837
Spine -15.230971 2.590639 1.884394
Head -0.925640 -10.286824 -0.129655
LeftShoulder 17.798620 -33.755432 -17.847000
LeftArm 17.153908 28.307044 -77.927534
LeftForeArm -64.336394 -0.000000 133.441302
LeftHand 1.316874 -0.000000 18.846963
LeftHandThumb1 -26.253704 0.000000 33.147579
RightShoulder 13.464635 51.410997 -33.326466
RightArm 97.090643 -25.681874 56.592102
RightForeArm -46.481163 0.000000 94.820849
RightHand -4.943395 -0.000000 6.184324
RightHandThumb1 -24.326973 -0.000000 -32.862282
LeftUpLeg -0.578007 9.186445 0.598370
LeftLeg -5.441408 -0.000000 0.000000
LeftFoot -17.353994 26.684451 -11.566590
LeftToeBase 26.760452 -0.000000 -0.000000
RightUpLeg 0.563490 -12.501050 0.480048
RightLeg -3.031608 -0.000000 0.000000
RightFoot -20.464855 -28.931478 13.437156
RightToeBase 23.911402 -0.000000 -0.000000
192
root 18.687604 35.617679 -20.842957 -174.723529 -8.128914 -179.978924
Spine -15.236280 2.633188 1.946426
Head -0.966107 -10.244649 -0.384601
LeftShoulder 17.837870 -33.754506 -17.878718
LeftArm 17.153282 28.036100 -77.927991
LeftForeArm -64.081477 -0.000000 134.025039
LeftHand 1.439779 -0.000000 19.054110
LeftHandThumb1 -26.253704 0.000000 33.147579
RightShoulder 13.597785 52.143352 -33.502572
RightArm 96.909596 -26.051986 57.087250
RightForeArm -46.302724 -0.000000 95.781312
RightHand -4.854881 -0.000000 6.312407
RightHandThumb1 -24.326973 -0.000000 -32.862282
LeftUpLeg -0.629821 9.222745 0.573647
LeftLeg -5.434614 -0.000000 0.000000
LeftFoot -17.342412 26.669900 -11.549687
LeftToeBase 26.770085 -0.000000 -0.000000
RightUpLeg 0.490226 -12.438498 0.475787
RightLeg -2.995958 -0.000000 0.000000
RightFoot -20.480478 -28.958705 13.456726
RightToeBase 23.899787 -0.000000 -0.000000
193
root 18.683569 35.617980 -20.849766 -174.735086 -8.209064 -179.978989
Spine -15.208726 2.609554 2.016596
Head -0.986632 -10.197157 -0.610299
LeftShoulder 17.870577 -33.706266 -17.913142
LeftArm 17.231039 27.804722 -77.922186
LeftForeArm -63.715042 0.000000 134.543482
LeftHand 1.477520 -0.000000 19.477845
LeftHandThumb1 -26.253704 0.000000 33.147579
RightShoulder 13.677932 52.841889 -33.689413
RightArm 96.789445 -26.433611 57.503295
RightForeArm -46.287881 -0.000000 96.721793
RightHand -5.059039 -0.000000 6.315650
RightHandThumb1 -24.326973 -0.000000 -32.862282
LeftUpLeg -0.602034 9.138809 0.580320
LeftLeg -5.460097 -0.000000 0.000000
LeftFoot -17.342139 26.664407 -11.587369
LeftToeBase 26.752101 -0.000000 -0.000000
RightUpLeg 0.537774 -12.550650 0.472151
RightLeg -3.026844 -0.000000 0.000000
RightFoot -20.473008 -28.942583 13.463035
RightToeBase 23.893323 -0.000000 -0.000000
194
root 18.681236 35.618512 -20.845747 -174.698374 -8.171493 -179.987485
Spine -15.194685 2.692491 2.051074
Head -1.007420 -10.133181 -0.858757
LeftShoulder 17.897794 -33.705630 -17.934508
LeftArm 17.269182 27.560978 -77.949108
LeftForeArm -63.175354 -0.000000 135.019290
LeftHand 1.459687 -0.000000 19.446860
LeftHandThumb1 -26.253704 0.000000 33.147579
RightShoulder 13.766676 53.571120 -33.850574
RightArm 96.617591 -26.829170 57.914264
RightForeArm -46.395608 -0.000000 97.600825
RightHand -4.985657 0.000000 6.118859
RightHandThumb1 -24.326973 -0.000000 -32.862282
LeftUpLeg -0.636278 9.172574 0.557691
LeftLeg -5.468282 -0.000000 0.000000
LeftFoot -17.324023 26.667859 -11.589943
LeftToeBase 26.720075 -0.000000 -0.000000
RightUpLeg 0.476479 -12.474854 0.466675
RightLeg -2.998233 -0.000000 0.000000
RightFoot -20.487071 -28.983914 13.480742
RightToeBase 23.863567 -0.000000 -0.000000
195
root 18.678347 35.619568 -20.846251 -174.679795 -8.178719 -179.995433
Spine -15.177155 2.756043 2.088021
Head -1.032554 -10.095765 -1.068109
LeftShoulder 17.942946 -33.719730 -17.970279
LeftArm 17.268979 27.340316 -77.985662
LeftForeArm -62.671055 -0.000000 135.502970
LeftHand 1.794036 -0.000000 19.528717
LeftHandThumb1 -26.253704 0.000000 33.147579
RightShoulder 13.832712 54.309926 -34.046878
RightArm 96.354211 -27.268569 58.418661
RightForeArm -46.851090 -0.000000 98.560964
RightHand -5.136601 -0.000000 6.463933
RightHandThumb1 -24.326973 -0.000000 -32.862282
LeftUpLeg -0.647895 9.168371 0.543592
LeftLeg -5.476648 -0.000000 0.000000
LeftFoot -17.311787 26.660369 -11.603121
LeftToeBase 26.714695 -0.000000 -0.000000
RightUpLeg 0.456538 -12.488506 0.460597
RightLeg -2.994870 -0.000000 0.000000
RightFoot -20.480911 -28.989554 13.492359
RightToeBase 23.839418 -0.000000 -0.000000
196
root 18.672446 35.618058 -20.848630 -174.674997 -8.183375 -179.988736
Spine -15.105987 2.557875 2.308671
Head -1.204522 -9.766059 -1.465496
LeftShoulder 17.461870 -33.772070 -17.812969
LeftArm 17.470543 27.145709 -77.907785
LeftForeArm -62.257070 0.000000 135.862488
LeftHand 2.009199 -0.000000 19.488267
LeftHandThumb1 -26.253704 0.000000 33.147579
RightShoulder 14.244298 55.191375 -34.075403
RightArm 96.211282 -27.630384 58.874084
RightForeArm -47.142422 -0.000000 99.342814
RightHand -5.236079 -0.000000 6.525738
RightHandThumb1 -24.326973 -0.000000 -32.862282
LeftUpLeg -0.643274 9.181186 0.540394
LeftLeg -5.487301 -0.000000 0.000000
LeftFoot -17.325093 26.653714 -11.560256
LeftToeBase 26.754900 -0.000000 -0.000000
RightUpLeg 0.452469 -12.510748 0.460362
RightLeg -2.989093 -0.000000 0.000000
RightFoot -20.496050 -28.985700 13.481761
RightToeBase 23.857817 -0.000000 -0.000000
